<?xml version="1.0" encoding="UTF-8"?>
<svg version="1.1" xmlns="http://www.w3.org/2000/svg" width="500" height="500">
<path d="M0 0 C165 0 330 0 500 0 C500 165 500 330 500 500 C335 500 170 500 0 500 C0 335 0 170 0 0 Z " fill="#000000" transform="translate(0,0)"/>
<path d="M0 0 C21 0 21 0 29 5 C33.60558229 9.60558229 34.24569389 13.97584867 34.29052734 20.33740234 C34.30328705 21.572435 34.31604675 22.80746765 34.32919312 24.07992554 C34.33225109 25.41526125 34.33447868 26.75059908 34.3359375 28.0859375 C34.34237343 29.47067398 34.34910238 30.85540912 34.35610962 32.24014282 C34.3680523 35.13668976 34.37179353 38.0331177 34.37060547 40.9296875 C34.37040237 44.62386979 34.39770697 48.31728197 34.43214989 52.01128197 C34.45449116 54.86993855 34.45844083 57.72841184 34.45738602 60.58714676 C34.46086361 62.6055497 34.48247829 64.62389544 34.50448608 66.6421814 C34.46847964 73.90599446 34.01465237 78.86811286 30 85 C21.03170374 93.53081839 14.44687667 90 0 90 C0 60.3 0 30.6 0 0 Z " fill="#989393" transform="translate(245,155)"/>
<path d="M0 0 C4.92437525 2.20300998 7.80451998 4.9093258 10.890625 9.3046875 C12.07934638 12.87085164 12.02271196 16.09560091 12.00415039 19.80541992 C12.00429642 20.56663651 12.00444244 21.32785309 12.0045929 22.11213684 C12.00389624 24.6281723 11.99611538 27.14413372 11.98828125 29.66015625 C11.98641619 31.40464742 11.9849927 33.1491391 11.98399353 34.89363098 C11.98017526 39.48527472 11.97035084 44.07688683 11.95928955 48.66851807 C11.94906061 53.35387748 11.94449273 58.03924201 11.93945312 62.72460938 C11.92872798 71.91798265 11.91165981 81.11133244 11.890625 90.3046875 C7.930625 90.3046875 3.970625 90.3046875 -0.109375 90.3046875 C-0.109375 77.1046875 -0.109375 63.9046875 -0.109375 50.3046875 C-3.739375 50.3046875 -7.369375 50.3046875 -11.109375 50.3046875 C-11.109375 63.5046875 -11.109375 76.7046875 -11.109375 90.3046875 C-14.739375 90.3046875 -18.369375 90.3046875 -22.109375 90.3046875 C-22.22546046 80.14265576 -22.31418735 69.98078296 -22.36843586 59.81822205 C-22.39447867 55.09879051 -22.42977891 50.37981414 -22.48657227 45.66064453 C-22.54108263 41.10241247 -22.5708355 36.54461695 -22.58376122 31.98608398 C-22.59296708 30.25098808 -22.6109442 28.51591484 -22.63802528 26.78100586 C-22.8837383 10.38068108 -22.8837383 10.38068108 -18.50944519 4.66381836 C-13.21443752 -0.47635845 -7.11262485 -2.34453189 0 0 Z " fill="#D9D9D9" transform="translate(307.109375,256.6953125)"/>
<path d="M0 0 C4.75205436 2.60122125 7.83195414 6.27851601 9.8125 11.3125 C9.99248095 13.88841318 10.06543671 16.35284781 10.03955078 18.92675781 C10.03984283 19.68812042 10.04013489 20.44948303 10.04043579 21.23391724 C10.03904506 23.74460336 10.02349604 26.25499086 10.0078125 28.765625 C10.00408146 30.50868569 10.00123491 32.25174848 9.99923706 33.99481201 C9.9916078 38.57826548 9.97196537 43.16159181 9.9498291 47.74499512 C9.92935546 52.42372925 9.92023209 57.10248396 9.91015625 61.78125 C9.88871882 70.95838913 9.85459138 80.13543399 9.8125 89.3125 C5.8525 89.3125 1.8925 89.3125 -2.1875 89.3125 C-2.1875 76.1125 -2.1875 62.9125 -2.1875 49.3125 C-5.8175 49.3125 -9.4475 49.3125 -13.1875 49.3125 C-13.1875 62.5125 -13.1875 75.7125 -13.1875 89.3125 C-16.8175 89.3125 -20.4475 89.3125 -24.1875 89.3125 C-24.28031456 79.13315288 -24.35132312 68.95390699 -24.39474869 58.77422237 C-24.41559431 54.0470017 -24.4438565 49.32007125 -24.48925781 44.59301758 C-24.53282374 40.02832258 -24.55665985 35.46390616 -24.56700897 30.89901924 C-24.57438109 29.16033101 -24.58877722 27.42165746 -24.61042023 25.6830883 C-24.63959784 23.24143799 -24.64345013 20.80092837 -24.64160156 18.35913086 C-24.65598267 17.64558945 -24.67036377 16.93204803 -24.68518066 16.19688416 C-24.64055031 10.72353548 -23.21419948 7.71399951 -20.1875 3.3125 C-13.78653611 -1.65151281 -7.62242103 -3.52679182 0 0 Z " fill="#B4B2B2" transform="translate(156.1875,257.6875)"/>
<path d="M0 0 C4.31347241 1.68548762 7.15347759 3.88040585 9.9375 7.5625 C11.52855614 11.21256996 12.12489814 14.39333061 12.16113281 18.36621094 C12.17074036 19.22100037 12.1803479 20.07578979 12.19024658 20.95648193 C12.19449646 21.87318665 12.19874634 22.78989136 12.203125 23.734375 C12.20882507 24.6863678 12.21452515 25.6383606 12.22039795 26.61920166 C12.22983655 28.63316745 12.2363774 30.6471486 12.24023438 32.66113281 C12.24992061 35.72488754 12.28094702 38.78796566 12.3125 41.8515625 C12.31903257 43.81249604 12.32428204 45.77343435 12.328125 47.734375 C12.3404718 48.64298279 12.3528186 49.55159058 12.36553955 50.48773193 C12.34308416 56.97794363 11.5965892 62.8899943 7.28125 68.05859375 C6.6934375 68.51363281 6.105625 68.96867187 5.5 69.4375 C4.9121875 69.91058594 4.324375 70.38367188 3.71875 70.87109375 C-0.48978205 73.63533412 -5.15426788 73.58052032 -10 73 C-14.83875464 71.26446227 -18.16423577 68.25364635 -21 64 C-21.96747782 61.09756653 -22.14254148 59.18749839 -22.17700195 56.16479492 C-22.18983719 55.18335007 -22.20267242 54.20190521 -22.21589661 53.1907196 C-22.22328354 52.13133682 -22.23067047 51.07195404 -22.23828125 49.98046875 C-22.246353 48.88914139 -22.25442474 47.79781403 -22.26274109 46.67341614 C-22.27657661 44.36261583 -22.28730114 42.05179514 -22.29516602 39.7409668 C-22.31238204 36.21168213 -22.35627459 32.68333339 -22.40039062 29.15429688 C-22.41051743 26.90886105 -22.41903357 24.66341727 -22.42578125 22.41796875 C-22.44328934 21.36465866 -22.46079742 20.31134857 -22.47883606 19.22612 C-22.4560194 11.49802608 -20.58098542 7.96813324 -15.5 2.125 C-10.99782809 -1.39446434 -5.37882269 -0.88119638 0 0 Z " fill="#878181" transform="translate(194,155)"/>
<path d="M0 0 C5.31379777 1.95863951 8.49040011 4.90517674 11.21704102 9.92016602 C12.69433028 13.84440275 12.41350627 17.80267797 12.25 21.9375 C12.23195312 22.81212891 12.21390625 23.68675781 12.1953125 24.58789062 C12.14858353 26.72574108 12.07685441 28.86302045 12 31 C8.04 31 4.08 31 0 31 C-0.04898438 29.79601562 -0.09796875 28.59203125 -0.1484375 27.3515625 C-0.22346343 25.77601802 -0.29901133 24.20049834 -0.375 22.625 C-0.4059375 21.8309375 -0.436875 21.036875 -0.46875 20.21875 C-0.51816421 15.63332625 -0.51816421 15.63332625 -3 12 C-5.54190002 11.7499227 -5.54190002 11.7499227 -8 12 C-10.45493073 14.45493073 -9.78769044 20.2764276 -9.87939453 23.64404297 C-9.62008809 32.74480493 -4.715168 37.51050487 1.55126953 43.56787109 C3.40299693 45.39837884 4.99941717 47.35736687 6.5625 49.4375 C6.97628906 49.97246094 7.39007813 50.50742188 7.81640625 51.05859375 C11.47560803 57.06065079 12.55608476 61.99610077 12.5 68.9375 C12.49572998 69.73365723 12.49145996 70.52981445 12.48706055 71.35009766 C12.31306634 77.32492334 11.39863359 81.68503607 7 86 C2.40164472 90.1706013 -0.45658494 91.37737551 -6.5546875 91.26953125 C-11.34935504 90.74104553 -15.22802565 89.00873521 -18.44897461 85.35742188 C-22.14574124 79.84186032 -22.63908266 75.54170185 -22.3125 69 C-22.28994141 68.12988281 -22.26738281 67.25976562 -22.24414062 66.36328125 C-22.18584794 64.24142749 -22.09619084 62.12047371 -22 60 C-18.04 60 -14.08 60 -10 60 C-9.95101562 61.20398438 -9.90203125 62.40796875 -9.8515625 63.6484375 C-9.77653657 65.22398198 -9.70098867 66.79950166 -9.625 68.375 C-9.5940625 69.1690625 -9.563125 69.963125 -9.53125 70.78125 C-9.48183579 75.36667375 -9.48183579 75.36667375 -7 79 C-3.69316534 78.71016731 -3.69316534 78.71016731 -1 77 C0.14189571 66.74393123 0.14189571 66.74393123 -2.46875 57 C-4.5084495 54.47465777 -6.65520463 52.2440273 -9 50 C-10.59678336 48.3042317 -12.18020741 46.59578425 -13.75 44.875 C-14.46671875 44.12992188 -15.1834375 43.38484375 -15.921875 42.6171875 C-21.34264348 35.79027982 -22.64734293 30.01911834 -22.5 21.375 C-22.51546875 20.45976562 -22.5309375 19.54453125 -22.546875 18.6015625 C-22.51390237 12.89729696 -21.83869234 9.49253554 -18 5 C-12.11762047 -0.18209625 -7.75171919 -0.91012088 0 0 Z " fill="#7D7676" transform="translate(154,155)"/>
<path d="M0 0 C4.31808767 2.36446742 7.93628416 5.46501769 9.49780273 10.30566406 C9.88262617 12.41683779 9.98890141 14.34001328 9.97265625 16.484375 C9.96943359 17.23847656 9.96621094 17.99257813 9.96289062 18.76953125 C9.95032227 19.93548828 9.95032227 19.93548828 9.9375 21.125 C9.93298828 21.91777344 9.92847656 22.71054687 9.92382812 23.52734375 C9.91208565 25.47659508 9.89415146 27.42580738 9.875 29.375 C5.915 29.375 1.955 29.375 -2.125 29.375 C-2.18558594 28.15941406 -2.24617188 26.94382812 -2.30859375 25.69140625 C-2.39298332 24.10675772 -2.4776321 22.52212298 -2.5625 20.9375 C-2.60181641 20.13505859 -2.64113281 19.33261719 -2.68164062 18.50585938 C-2.5304296 14.62260439 -2.5304296 14.62260439 -4.125 11.375 C-7.125 11.20833333 -7.125 11.20833333 -10.125 11.375 C-11.92762522 13.17762522 -11.25268703 15.9187701 -11.25439453 18.34765625 C-11.25754669 19.62568115 -11.26069885 20.90370605 -11.26394653 22.22045898 C-11.26215675 23.62613967 -11.2601058 25.03182005 -11.2578125 26.4375 C-11.25848558 27.86857113 -11.25945564 29.29964215 -11.26071167 30.73071289 C-11.26218844 33.73357224 -11.26003476 36.7364019 -11.25537109 39.73925781 C-11.24967381 43.59652571 -11.25295292 47.45372404 -11.25894356 51.31098938 C-11.26254974 54.26713591 -11.26141032 57.22326583 -11.25881577 60.17941284 C-11.25814665 61.60204069 -11.25897437 63.02467003 -11.26129532 64.44729614 C-11.26382274 66.43231174 -11.25929042 68.41733259 -11.25439453 70.40234375 C-11.25359894 71.53406006 -11.25280334 72.66577637 -11.25198364 73.83178711 C-11.41333982 76.31031511 -11.41333982 76.31031511 -10.125 77.375 C-8.12541636 77.41580783 -6.12454746 77.41754356 -4.125 77.375 C-2.4751993 74.07539859 -2.74241639 70.38372116 -2.5625 66.75 C-2.51931641 65.94820313 -2.47613281 65.14640625 -2.43164062 64.3203125 C-2.32548543 62.3387489 -2.22473145 60.35689729 -2.125 58.375 C1.835 58.375 5.795 58.375 9.875 58.375 C9.98401505 61.20939137 10.06277904 64.03950203 10.125 66.875 C10.15851563 67.66648437 10.19203125 68.45796875 10.2265625 69.2734375 C10.32279489 75.14361333 9.18075055 79.47745791 5.875 84.375 C0.71084658 89.2872435 -3.59163539 89.67642585 -10.46875 89.5859375 C-15.35853419 89.19763111 -17.74305216 86.93218756 -20.875 83.4375 C-24.2140718 78.89265227 -24.25394268 75.55099274 -24.30200195 69.97338867 C-24.31483719 68.67491501 -24.32767242 67.37644135 -24.34089661 66.03862 C-24.34906467 64.62340681 -24.35650827 63.20818929 -24.36328125 61.79296875 C-24.36735678 61.07722498 -24.3714323 60.36148121 -24.37563133 59.62404823 C-24.3964563 55.83587563 -24.41077366 52.04773887 -24.42016602 48.25952148 C-24.43122606 44.35897846 -24.46563078 40.45900658 -24.50533772 36.55866528 C-24.53155266 33.54823284 -24.5398621 30.53793559 -24.54344749 27.52739906 C-24.54830051 26.09015353 -24.55987779 24.65291352 -24.57848549 23.21578026 C-24.74907343 9.16825947 -24.74907343 9.16825947 -20.125 3.375 C-13.76463499 -1.55752797 -7.6014859 -3.46305879 0 0 Z " fill="#CCCCCC" transform="translate(269.125,257.625)"/>
<path d="M0 0 C8.91 0 17.82 0 27 0 C27 3.63 27 7.26 27 11 C21.72 11 16.44 11 11 11 C11 20.24 11 29.48 11 39 C15.29 39 19.58 39 24 39 C24 42.63 24 46.26 24 50 C19.71 50 15.42 50 11 50 C11 63.2 11 76.4 11 90 C7.37 90 3.74 90 0 90 C0 60.3 0 30.6 0 0 Z " fill="#C0BEBE" transform="translate(172,257)"/>
<path d="M0 0 C4.50665768 2.13473258 7.1741532 4.91822129 10 9 C12.30797648 15.92392945 12.48028964 26.93603382 9.5 33.75 C6.91258426 37.76682724 3.46271469 40.34940689 -1 42 C-6.92433643 42.95081943 -11.98779513 42.49688712 -17 39 C-22.90219812 32.98553181 -23.23078181 28.84554908 -23.3125 20.75 C-23.34150391 19.80769531 -23.37050781 18.86539063 -23.40039062 17.89453125 C-23.45367837 12.04927598 -22.96723028 8.60663736 -19 4 C-13.60110234 -1.26046438 -7.10007001 -0.89542284 0 0 Z " fill="#A29E9E" transform="translate(308,155)"/>
<path d="M0 0 C10.56 0 21.12 0 32 0 C32 3.63 32 7.26 32 11 C28.7 11 25.4 11 22 11 C22 37.07 22 63.14 22 90 C18.37 90 14.74 90 11 90 C11 63.93 11 37.86 11 11 C7.37 11 3.74 11 0 11 C0 7.37 0 3.74 0 0 Z " fill="#AFABAB" transform="translate(324,155)"/>
<path d="M0 0 C5.754375 -0.0928125 5.754375 -0.0928125 11.625 -0.1875 C13.42251709 -0.22846802 13.42251709 -0.22846802 15.25634766 -0.27026367 C21.90829072 -0.3222058 26.52020654 0.12017093 31.8125 4.5 C34.5698648 7.98298712 34.29206134 11.76511051 34 16 C32.20071992 20.16675387 30.05717865 22.02342579 26 24 C25.34 24 24.68 24 24 24 C24 24.66 24 25.32 24 26 C25.0828125 26.309375 25.0828125 26.309375 26.1875 26.625 C29.95992464 28.46929649 31.69213669 30.50523557 34 34 C34.3125 37.875 34.3125 37.875 34 41 C30.04 41 26.08 41 22 41 C21.8046875 38.98177083 21.609375 36.96354167 21.4140625 34.9453125 C21.13625251 32.77331755 21.13625251 32.77331755 19 31 C16.34462628 30.43479997 13.70855287 30.26211802 11 30 C11 33.63 11 37.26 11 41 C7.37 41 3.74 41 0 41 C0 27.47 0 13.94 0 0 Z " fill="#C4C2C2" transform="translate(205,257)"/>
<path d="M0 0 C3.63 0 7.26 0 11 0 C11.33 25.74 11.66 51.48 12 78 C16.95 78.33 21.9 78.66 27 79 C27 82.63 27 86.26 27 90 C23.24923335 90.10784952 19.50156051 90.18724988 15.75 90.25 C14.68652344 90.28351563 13.62304688 90.31703125 12.52734375 90.3515625 C11.50253906 90.36445313 10.47773438 90.37734375 9.421875 90.390625 C8.00793457 90.4220459 8.00793457 90.4220459 6.56542969 90.45410156 C3.07424432 89.83613384 2.12433847 88.83550529 0 86 C-0.37400179 83.08747474 -0.5070566 80.55955535 -0.45410156 77.65136719 C-0.45468567 76.81197601 -0.45526978 75.97258484 -0.45587158 75.10775757 C-0.45308786 72.33704071 -0.42198277 69.56740359 -0.390625 66.796875 C-0.38316362 64.87445666 -0.3774702 62.95203071 -0.37347412 61.02960205 C-0.35820967 55.9725236 -0.31892075 50.9159055 -0.2746582 45.85900879 C-0.23372306 40.69773587 -0.21546685 35.5363885 -0.1953125 30.375 C-0.15242739 20.24979787 -0.08416613 10.12493723 0 0 Z " fill="#928D8D" transform="translate(212,155)"/>
<path d="M0 0 C3.3 0 6.6 0 10 0 C10.01981934 0.83249268 10.03963867 1.66498535 10.06005859 2.52270508 C10.13820742 5.614765 10.22490206 8.70643383 10.31738281 11.7980957 C10.37444092 13.7929536 10.42164442 15.7880854 10.46875 17.78320312 C10.50742187 19.03681641 10.54609375 20.29042969 10.5859375 21.58203125 C10.6173584 22.73936768 10.6487793 23.8967041 10.68115234 25.08911133 C10.79471033 28.19127028 10.79471033 28.19127028 13 31 C16.5 31.41666667 16.5 31.41666667 20 31 C22.79177569 28.20822431 22.31213484 26.36816428 22.4140625 22.4609375 C22.45273437 21.15898437 22.49140625 19.85703125 22.53125 18.515625 C22.56270763 17.13542138 22.59395491 15.75521296 22.625 14.375 C22.66317934 12.98695459 22.70223105 11.59893289 22.7421875 10.2109375 C22.83672943 6.80742815 22.92227897 3.40392835 23 0 C26.63 0 30.26 0 34 0 C34.09973852 3.98340305 34.17187198 7.96631108 34.21972656 11.95068359 C34.24946045 13.96347627 34.30031729 15.97592134 34.3515625 17.98828125 C34.42679174 25.47359025 34.24713706 30.72460719 30 37 C23.92605868 41.83436146 18.57313726 42.8056529 11 42 C6.37234306 40.55058292 3.13148053 37.74463461 0.79833984 33.47241211 C-1.08862743 27.62858411 -0.39548355 21.14741801 -0.25 15.0625 C-0.22990977 13.60093585 -0.21166344 12.13934514 -0.1953125 10.67773438 C-0.15150336 7.11793226 -0.08261546 3.55913746 0 0 Z " fill="#A29E9E" transform="translate(285,204)"/>
<path d="M0 0 C11.22 0 22.44 0 34 0 C34 3.3 34 6.6 34 10 C30.04 10 26.08 10 22 10 C22 16.93 22 23.86 22 31 C25.96 31 29.92 31 34 31 C34 34.3 34 37.6 34 41 C22.78 41 11.56 41 0 41 C0 37.7 0 34.4 0 31 C3.96 31 7.92 31 12 31 C12 24.07 12 17.14 12 10 C8.04 10 4.08 10 0 10 C0 6.7 0 3.4 0 0 Z " fill="#C8C6C6" transform="translate(205,306)"/>
<path d="M0 0 C2.64 0 5.28 0 8 0 C10.69886885 2.69886885 10.25867215 4.09609614 10.2746582 7.87084961 C10.28419022 9.10230209 10.29372223 10.33375458 10.30354309 11.6025238 C10.30328167 12.95246407 10.30234464 14.30240436 10.30078125 15.65234375 C10.30466699 17.03235504 10.30900141 18.41236513 10.31376648 19.79237366 C10.32123415 22.68673578 10.32093364 25.58097594 10.31567383 28.4753418 C10.30988004 32.18570238 10.32680469 35.89556363 10.3500185 39.60584164 C10.36474649 42.45657778 10.36562883 45.30719344 10.36250877 48.15796089 C10.36302252 49.52591503 10.36827027 50.89387582 10.37832069 52.26179314 C10.39064742 54.1744087 10.381964 56.08712491 10.37231445 57.99975586 C10.37294388 59.08848495 10.3735733 60.17721405 10.3742218 61.29893494 C10 64 10 64 8.91423035 65.87501526 C7 67 7 67 0 67 C0 44.89 0 22.78 0 0 Z " fill="#000000" transform="translate(257,167)"/>
<path d="M0 0 C2.95287875 0.51675378 3.67531405 1.11342396 5.5 3.4375 C5.88095093 5.4417572 5.88095093 5.4417572 5.88818359 7.75366211 C5.89764008 8.62143784 5.90709656 9.48921356 5.9168396 10.38328552 C5.91076691 11.31769974 5.90469421 12.25211395 5.8984375 13.21484375 C5.90274277 14.65918541 5.90274277 14.65918541 5.90713501 16.13270569 C5.9091768 18.16944974 5.90363895 20.20621336 5.89111328 22.24291992 C5.87507892 25.35965924 5.89094929 28.4750983 5.91015625 31.59179688 C5.9081735 33.57031536 5.90432915 35.54883304 5.8984375 37.52734375 C5.90754654 38.92592873 5.90754654 38.92592873 5.9168396 40.35276794 C5.84637428 46.84251928 5.84637428 46.84251928 3.97509766 50.05688477 C3.24492432 50.74028931 3.24492432 50.74028931 2.5 51.4375 C-0.375 51.125 -0.375 51.125 -3.5 50.4375 C-5.55369933 47.356951 -5.75312502 46.6957455 -5.7746582 43.21313477 C-5.78419022 42.36537979 -5.79372223 41.51762482 -5.80354309 40.6441803 C-5.80263168 39.73163986 -5.80172028 38.81909943 -5.80078125 37.87890625 C-5.80506638 36.93820786 -5.8093515 35.99750946 -5.81376648 35.02830505 C-5.81950985 33.03865361 -5.82000999 31.04898118 -5.81567383 29.05932617 C-5.81251566 26.01509768 -5.83596671 22.97184256 -5.86132812 19.92773438 C-5.86360129 17.99479289 -5.86430453 16.0618488 -5.86328125 14.12890625 C-5.872491 13.21839005 -5.88170074 12.30787384 -5.89118958 11.36976624 C-5.8452124 5.08888255 -5.8452124 5.08888255 -4.13354492 1.85913086 C-2.5 0.4375 -2.5 0.4375 0 0 Z " fill="#050404" transform="translate(188.5,165.5625)"/>
<path d="M0 0 C10.89 0 21.78 0 33 0 C33 3.63 33 7.26 33 11 C22.11 11 11.22 11 0 11 C0 7.37 0 3.74 0 0 Z " fill="#898383" transform="translate(172,234)"/>
<path d="M0 0 C2 2 2 2 2.22705078 4.61376953 C2.21134033 6.2319458 2.21134033 6.2319458 2.1953125 7.8828125 C2.18564453 9.63271484 2.18564453 9.63271484 2.17578125 11.41796875 C2.15902344 12.64128906 2.14226562 13.86460937 2.125 15.125 C2.11597656 16.35605469 2.10695312 17.58710938 2.09765625 18.85546875 C2.07402548 21.90383815 2.04108054 24.95182382 2 28 C-1.63 28 -5.26 28 -9 28 C-9.08071599 23.89544235 -9.14036813 19.79246164 -9.1875 15.6875 C-9.21263672 14.52025391 -9.23777344 13.35300781 -9.26367188 12.15039062 C-9.27817383 10.47299805 -9.27817383 10.47299805 -9.29296875 8.76171875 C-9.3086792 7.73006592 -9.32438965 6.69841309 -9.34057617 5.63549805 C-9 3 -9 3 -7.6730957 1.15942383 C-5.10813493 -0.61804571 -3.02828635 -0.32215812 0 0 Z " fill="#090909" transform="translate(152,268)"/>
<path d="M0 0 C2.29755922 3.44633882 2.23643976 4.71068391 2.1953125 8.76171875 C2.18564453 10.43911133 2.18564453 10.43911133 2.17578125 12.15039062 C2.15902344 13.31763672 2.14226562 14.48488281 2.125 15.6875 C2.11597656 16.86634766 2.10695313 18.04519531 2.09765625 19.25976562 C2.07406517 22.17326342 2.03819386 25.08665704 2 28 C-1.63 28 -5.26 28 -9 28 C-9.08071599 23.89544235 -9.14036813 19.79246164 -9.1875 15.6875 C-9.21263672 14.52025391 -9.23777344 13.35300781 -9.26367188 12.15039062 C-9.27817383 10.47299805 -9.27817383 10.47299805 -9.29296875 8.76171875 C-9.3086792 7.73006592 -9.32438965 6.69841309 -9.34057617 5.63549805 C-9 3 -9 3 -7.6730957 1.16333008 C-5.08198616 -0.63830964 -3.05694536 -0.39024834 0 0 Z " fill="#090909" transform="translate(305,268)"/>
<path d="M0 0 C2.61042212 2.61042212 2.28846788 4.51121185 2.32226562 8.07226562 C2.31904297 8.85279297 2.31582031 9.63332031 2.3125 10.4375 C2.32861328 11.21416016 2.34472656 11.99082031 2.36132812 12.79101562 C2.36627111 18.52982408 2.36627111 18.52982408 0.66088867 20.71899414 C-1 22 -1 22 -3.9375 22.4375 C-7.78172384 21.88832517 -8.68502901 21.08334434 -11 18 C-11.49609375 14.43359375 -11.49609375 14.43359375 -11.4375 10.4375 C-11.44458984 9.76525391 -11.45167969 9.09300781 -11.45898438 8.40039062 C-11.4221224 5.54500571 -11.31111147 3.47525618 -9.7265625 1.0546875 C-6.51090316 -0.90962929 -3.69259311 -0.29306294 0 0 Z " fill="#060606" transform="translate(306,165)"/>
<path d="M0 0 C9.625 -0.25 9.625 -0.25 13 2 C13.375 5 13.375 5 13 8 C8.61501596 10.92332269 5.2225328 10.1356502 0 10 C0 6.7 0 3.4 0 0 Z " fill="#020202" transform="translate(216,267)"/>
<path d="M0 0 C1.52519276 0.08937803 3.04681929 0.24537146 4.5625 0.4375 C5.80193359 0.59025391 5.80193359 0.59025391 7.06640625 0.74609375 C7.70449219 0.82988281 8.34257812 0.91367187 9 1 C9 1.66 9 2.32 9 3 C9.66 3.33 10.32 3.66 11 4 C10.34 4 9.68 4 9 4 C9 5.65 9 7.3 9 9 C9.66 9.33 10.32 9.66 11 10 C10.195625 9.814375 9.39125 9.62875 8.5625 9.4375 C7.716875 9.293125 6.87125 9.14875 6 9 C5.67 9.33 5.34 9.66 5 10 C3.00041636 10.04080783 0.99954746 10.04254356 -1 10 C-1 9.34 -1 8.68 -1 8 C1.475 8.495 1.475 8.495 4 9 C4 8.01 4 7.02 4 6 C2.68 5.67 1.36 5.34 0 5 C-0.5625 3.0625 -0.5625 3.0625 -1 1 C-0.67 0.67 -0.34 0.34 0 0 Z " fill="#717171" transform="translate(213,364)"/>
<path d="M0 0 C2.31 0.33 4.62 0.66 7 1 C7.09765625 7.15234375 7.09765625 7.15234375 7 9 C6 10 6 10 2.9375 10.0625 C1.968125 10.041875 0.99875 10.02125 0 10 C0 6.7 0 3.4 0 0 Z " fill="#868686" transform="translate(192,364)"/>
<path d="M0 0 C0.33 0 0.66 0 1 0 C1 3.3 1 6.6 1 10 C-0.99954746 10.04254356 -3.00041636 10.04080783 -5 10 C-6 9 -6 9 -6.125 6.5 C-6 4 -6 4 -5 3 C-3.33382885 2.95936168 -1.66611905 2.957279 0 3 C0 2.01 0 1.02 0 0 Z " fill="#828282" transform="translate(231,364)"/>
<path d="M0 0 C2.5 0.125 2.5 0.125 3.5 1.125 C3.625 3.625 3.625 3.625 3.5 6.125 C2.5 7.125 2.5 7.125 -0.0625 7.1875 C-1.2690625 7.1565625 -1.2690625 7.1565625 -2.5 7.125 C-2.88133299 5.1335944 -3.21325582 3.13220923 -3.5 1.125 C-2.5 0.125 -2.5 0.125 0 0 Z " fill="#BBBBBB" transform="translate(240.5,366.875)"/>
<path d="M0 0 C0.33 0 0.66 0 1 0 C1 3.3 1 6.6 1 10 C-0.65 10 -2.3 10 -4 10 C-5 9 -5 9 -5.0625 6.4375 C-5.041875 5.633125 -5.02125 4.82875 -5 4 C-3.35 3.67 -1.7 3.34 0 3 C0 2.01 0 1.02 0 0 Z " fill="#D0D0D0" transform="translate(185,364)"/>
<path d="M0 0 C0.99 0.33 1.98 0.66 3 1 C3 1.66 3 2.32 3 3 C3.45375 2.505 3.9075 2.01 4.375 1.5 C6 0 6 0 8 0 C7.814375 1.093125 7.62875 2.18625 7.4375 3.3125 C6.7421932 6.93624133 6.7421932 6.93624133 8 10 C7.01 9.67 6.02 9.34 5 9 C5 8.34 5 7.68 5 7 C4.34 7 3.68 7 3 7 C2.67 7.99 2.34 8.98 2 10 C1.34 9.67 0.68 9.34 0 9 C0.185625 8.071875 0.37125 7.14375 0.5625 6.1875 C1.24123881 2.98656229 1.24123881 2.98656229 0 0 Z " fill="#B60101" transform="translate(246,364)"/>
<path d="M0 0 C1.67542976 0.28604898 3.34385343 0.61781233 5 1 C5 2.65 5 4.3 5 6 C2.625 6.625 2.625 6.625 0 7 C-0.66 6.34 -1.32 5.68 -2 5 C-1.46428571 1.46428571 -1.46428571 1.46428571 0 0 Z " fill="#767676" transform="translate(142,367)"/>
<path d="M0 0 C1.65 0 3.3 0 5 0 C6 1 6 1 6.0625 3.5625 C6.041875 4.366875 6.02125 5.17125 6 6 C4.35 6 2.7 6 1 6 C0.67 7.32 0.34 8.64 0 10 C0 6.7 0 3.4 0 0 Z " fill="#8D8D8D" transform="translate(133,364)"/>
<path d="M0 0 C0.33 0.99 0.66 1.98 1 3 C1.66 3 2.32 3 3 3 C3 2.01 3 1.02 3 0 C3.928125 0.2784375 3.928125 0.2784375 4.875 0.5625 C7.04160178 1.23686176 7.04160178 1.23686176 9 0 C8.67 2.31 8.34 4.62 8 7 C7.01 6.67 6.02 6.34 5 6 C4.67 5.34 4.34 4.68 4 4 C3.67 4.99 3.34 5.98 3 7 C2.34 7 1.68 7 1 7 C0.67 4.69 0.34 2.38 0 0 Z " fill="#B3B3B3" transform="translate(149,367)"/>
<path d="M0 0 C1.2065625 0.0309375 1.2065625 0.0309375 2.4375 0.0625 C2.7675 1.3825 3.0975 2.7025 3.4375 4.0625 C1.7875 4.0625 0.1375 4.0625 -1.5625 4.0625 C-1.5625 4.7225 -1.5625 5.3825 -1.5625 6.0625 C-0.2425 5.7325 1.0775 5.4025 2.4375 5.0625 C2.4375 5.7225 2.4375 6.3825 2.4375 7.0625 C0.7875 7.0625 -0.8625 7.0625 -2.5625 7.0625 C-2.94383299 5.0710944 -3.27575582 3.06970923 -3.5625 1.0625 C-2.5625 0.0625 -2.5625 0.0625 0 0 Z " fill="#9A9A9A" transform="translate(162.5625,366.9375)"/>
<path d="M0 0 C1.2065625 0.0309375 1.2065625 0.0309375 2.4375 0.0625 C2.4375 1.3825 2.4375 2.7025 2.4375 4.0625 C1.1175 4.0625 -0.2025 4.0625 -1.5625 4.0625 C-1.5625 4.7225 -1.5625 5.3825 -1.5625 6.0625 C-0.2425 5.7325 1.0775 5.4025 2.4375 5.0625 C2.4375 5.7225 2.4375 6.3825 2.4375 7.0625 C0.7875 7.0625 -0.8625 7.0625 -2.5625 7.0625 C-2.94383299 5.0710944 -3.27575582 3.06970923 -3.5625 1.0625 C-2.5625 0.0625 -2.5625 0.0625 0 0 Z " fill="#9F9F9F" transform="translate(175.5625,366.9375)"/>
<path d="M0 0 C0.99 0.99 1.98 1.98 3 3 C3.99 2.01 4.98 1.02 6 0 C5.60404157 1.48484412 5.18249294 2.9628831 4.75 4.4375 C4.51796875 5.26121094 4.2859375 6.08492188 4.046875 6.93359375 C3 9 3 9 0.890625 9.78515625 C0.26671875 9.85605469 -0.3571875 9.92695313 -1 10 C-0.649375 9.46375 -0.29875 8.9275 0.0625 8.375 C1.28924249 5.26725237 0.72856431 3.20568297 0 0 Z " fill="#B8B8B8" transform="translate(201,367)"/>
<path d="M0 0 C0.66 0 1.32 0 2 0 C2 0.66 2 1.32 2 2 C2.66 2.33 3.32 2.66 4 3 C3.34 3 2.68 3 2 3 C2 4.65 2 6.3 2 8 C2.66 8.33 3.32 8.66 4 9 C2.68 8.67 1.36 8.34 0 8 C-1.125 2.25 -1.125 2.25 0 0 Z " fill="#A9A9A9" transform="translate(220,365)"/>
<path d="M0 0 C2.31 0.33 4.62 0.66 7 1 C7 1.99 7 2.98 7 4 C5.35 4 3.7 4 2 4 C2 3.01 2 2.02 2 1 C1.34 0.67 0.68 0.34 0 0 Z " fill="#646464" transform="translate(192,364)"/>
<path d="M0 0 C0.99 0.33 1.98 0.66 3 1 C3 1.66 3 2.32 3 3 C3.45375 2.505 3.9075 2.01 4.375 1.5 C6 0 6 0 8 0 C7.34 1.32 6.68 2.64 6 4 C5.01 4 4.02 4 3 4 C2.67 4.66 2.34 5.32 2 6 C1.34 4.02 0.68 2.04 0 0 Z " fill="#930101" transform="translate(246,364)"/>
<path d="M0 0 C1.32 0.33 2.64 0.66 4 1 C3.67 2.32 3.34 3.64 3 5 C2.01 5 1.02 5 0 5 C0 3.35 0 1.7 0 0 Z " fill="#131313" transform="translate(239,368)"/>
<path d="M0 0 C0.99 0 1.98 0 3 0 C2.67 1.65 2.34 3.3 2 5 C1.01 4.67 0.02 4.34 -1 4 C-0.67 2.68 -0.34 1.36 0 0 Z " fill="#070707" transform="translate(182,368)"/>
</svg>
